# 3ds Max Wavefront OBJ Exporter v0.97b - (c)2007 guruware
# File Created: 19.09.2011 17:53:42

mtllib Rock1.mtl

#
# object Cylinder009
#

v  13.0598 -3.0733 -1.5505
v  6.1847 -4.3506 -13.7290
v  6.3097 2.9721 -13.1106
v  12.8696 4.2495 -2.3505
v  -7.4632 -4.2134 -12.6390
v  -7.3382 3.1093 -13.0881
v  -14.2359 -6.9308 -1.2022
v  -14.4262 0.3920 -0.9776
v  -7.7678 -5.8135 10.9998
v  -7.7241 1.5093 10.5507
v  5.8800 -3.8338 9.9098
v  5.9238 3.4890 10.5282
v  -0.4346 50.6745 -2.0477
v  -0.8544 50.5476 -2.2030
v  -1.0306 51.0572 -1.8841
v  -0.3741 51.3731 -1.3205
v  -0.7939 51.3855 -1.4759
v  -0.1909 50.9968 -1.5883
v  3.4141 8.3777 -7.8413
v  7.3827 8.0201 -1.4813
v  -4.8599 7.8589 -7.9658
v  -9.1652 6.1454 -1.1244
v  -4.8721 7.4470 6.3652
v  3.4019 8.2479 6.4897
v  4.1955 15.3062 -9.6556
v  8.9824 14.0037 -1.4444
v  -5.7320 13.3919 -8.6494
v  -10.8726 11.9132 -0.8603
v  -5.9434 14.5341 8.5455
v  3.9841 15.0717 7.5393
v  0.8513 28.1150 -3.5336
v  2.9006 28.9869 -0.0177
v  -2.8755 28.3790 -4.4816
v  -4.5531 28.7036 -1.8505
v  -2.5069 28.6952 1.9735
v  1.2199 28.7697 2.9215
v  0.2712 38.0663 -3.3401
v  1.0746 39.4714 -1.9957
v  -1.3887 37.7673 -2.9843
v  -2.2453 38.6944 -0.7708
v  -1.6415 39.6362 -0.1091
v  0.0184 39.6046 -0.4650
# 42 vertices

vn 0.8804 -0.4741 0.0125
vn 0.3842 -0.7083 -0.5922
vn 0.4732 0.1616 -0.8660
vn 0.9750 0.2190 -0.0363
vn -0.3440 -0.5683 -0.7474
vn -0.5255 0.2043 -0.8259
vn -0.5029 -0.8588 -0.0975
vn -0.9952 0.0974 0.0082
vn -0.2526 -0.6983 0.6697
vn -0.5295 0.1335 0.8378
vn 0.5470 -0.4906 0.6783
vn 0.4811 0.1673 0.8605
vn 0.5485 0.1336 -0.8254
vn -0.3123 0.0713 -0.9473
vn -0.7121 0.3629 -0.6009
vn 0.4749 0.8298 0.2932
vn -0.4284 0.9029 -0.0361
vn 0.9523 0.1861 -0.2418
vn 0.4639 0.1444 -0.8741
vn 0.9806 0.1958 -0.0071
vn -0.4994 0.1293 -0.8567
vn -0.9849 0.1731 0.0001
vn -0.5191 0.0913 0.8498
vn 0.5021 0.1070 0.8582
vn 0.4591 0.0633 -0.8861
vn 0.9998 0.0081 -0.0200
vn -0.5174 0.0122 -0.8557
vn -0.9992 -0.0220 -0.0337
vn -0.4957 0.0403 0.8676
vn 0.5462 0.0385 0.8368
vn 0.5877 0.1130 -0.8012
vn 0.9960 0.0895 -0.0011
vn -0.3600 0.1164 -0.9257
vn -0.9928 0.1041 -0.0592
vn -0.6171 0.1197 0.7777
vn 0.3818 0.1405 0.9135
vn 0.3744 0.0197 -0.9270
vn 0.9979 0.0558 -0.0322
vn -0.6144 0.0390 -0.7880
vn -0.9933 0.0422 0.1073
vn -0.3704 0.0500 0.9275
vn 0.5558 0.0516 0.8297
# 42 vertex normals

vt 1.2301 -0.0788 0.1885
vt 1.4779 -0.1214 0.1784
vt 1.4699 0.1227 0.1733
vt 1.2433 0.1652 0.1866
vt 1.7674 -0.1168 0.1574
vt 1.7609 0.1272 0.1612
vt 0.1374 -0.1168 0.1574
vt 0.4053 -0.2073 0.1680
vt 0.4093 0.0367 0.1705
vt 0.1309 0.1272 0.1612
vt 0.6770 -0.1701 0.1647
vt 0.6735 0.0739 0.1599
vt 0.9792 -0.1041 0.1601
vt 0.9732 0.1399 0.1664
vt -0.3999 -0.0788 0.1885
vt -0.1521 -0.1214 0.1784
vt -0.6508 -0.1041 0.1601
vt 1.4168 1.7122 0.0167
vt 1.5072 1.7080 0.0148
vt 1.5156 1.7250 0.0105
vt 1.2781 1.7355 0.0133
vt 1.3659 1.7359 0.0089
vt 1.3185 1.7230 0.0165
vt 1.4571 0.3028 0.1011
vt 1.2332 0.2909 0.1144
vt 1.7630 0.2855 0.0929
vt 0.4061 0.2284 0.1018
vt 0.1330 0.2855 0.0929
vt 0.6901 0.2718 0.0987
vt 0.9736 0.2985 0.1086
vt 1.4679 0.5337 0.1243
vt 1.2307 0.4903 0.1353
vt 1.7777 0.4699 0.1056
vt 0.4129 0.4206 0.1241
vt 0.1477 0.4699 0.1056
vt 0.6890 0.5079 0.1279
vt 0.9718 0.5258 0.1231
vt 1.4254 0.9605 0.0409
vt 1.1654 0.9895 0.0572
vt 1.7484 0.9693 0.0445
vt 0.3518 0.9801 0.0425
vt 0.1184 0.9693 0.0445
vt 0.7134 0.9798 0.0388
vt 0.9769 0.9823 0.0579
vt 1.4537 1.2921 0.0342
vt 1.3068 1.3389 0.0337
vt 1.6325 1.2821 0.0224
vt 0.4873 1.3130 0.0120
vt 0.0025 1.2821 0.0224
vt 0.7374 1.3444 0.0119
vt 1.1244 1.3434 0.0195
vt -0.1144 1.7250 0.0105
vt -0.1228 1.7080 0.0148
vt 2.1173 1.3130 0.0120
# 54 texture coords

g Cylinder009
usemtl Rock1Mtl
s 1
f 1/1/1 2/2/2 3/3/3 4/4/4 
f 2/2/2 5/5/5 6/6/6 3/3/3 
f 5/7/5 7/8/7 8/9/8 6/10/6 
f 9/11/9 10/12/10 8/9/8 7/8/7 
f 11/13/11 12/14/12 10/12/10 9/11/9 
f 1/1/1 4/4/4 12/14/12 11/13/11 
f 9/11/9 7/8/7 5/7/5 1/15/1 
f 5/7/5 2/16/2 1/15/1 
f 11/17/11 9/11/9 1/15/1 
f 13/18/13 14/19/14 15/20/15 16/21/16 
f 15/20/15 17/22/17 16/21/16 
f 18/23/18 13/18/13 16/21/16 
f 4/4/4 3/3/3 19/24/19 20/25/20 
f 6/6/6 21/26/21 19/24/19 3/3/3 
f 6/10/6 8/9/8 22/27/22 21/28/21 
f 10/12/10 23/29/23 22/27/22 8/9/8 
f 12/14/12 24/30/24 23/29/23 10/12/10 
f 12/14/12 4/4/4 20/25/20 24/30/24 
f 19/24/19 25/31/25 26/32/26 20/25/20 
f 19/24/19 21/26/21 27/33/27 25/31/25 
f 21/28/21 22/27/22 28/34/28 27/35/27 
f 23/29/23 29/36/29 28/34/28 22/27/22 
f 24/30/24 30/37/30 29/36/29 23/29/23 
f 24/30/24 20/25/20 26/32/26 30/37/30 
f 26/32/26 25/31/25 31/38/31 32/39/32 
f 25/31/25 27/33/27 33/40/33 31/38/31 
f 27/35/27 28/34/28 34/41/34 33/42/33 
f 29/36/29 35/43/35 34/41/34 28/34/28 
f 30/37/30 36/44/36 35/43/35 29/36/29 
f 30/37/30 26/32/26 32/39/32 36/44/36 
f 32/39/32 31/38/31 37/45/37 38/46/38 
f 31/38/31 33/40/33 39/47/39 37/45/37 
f 34/41/34 40/48/40 39/49/39 33/42/33 
f 35/43/35 41/50/41 40/48/40 34/41/34 
f 35/43/35 36/44/36 42/51/42 41/50/41 
f 32/39/32 38/46/38 42/51/42 36/44/36 
f 38/46/38 37/45/37 13/18/13 18/23/18 
f 37/45/37 39/47/39 14/19/14 13/18/13 
f 40/48/40 15/52/15 14/53/14 39/49/39 
f 41/50/41 17/22/17 15/20/15 40/54/40 
f 42/51/42 16/21/16 17/22/17 41/50/41 
f 42/51/42 38/46/38 18/23/18 16/21/16 
# 38 polygons - 4 triangles

