# 3ds Max Wavefront OBJ Exporter v0.97b - (c)2007 guruware
# File Created: 19.09.2011 17:51:05

mtllib Rock1.mtl

#
# object GeoSphere002
#

v  0.9283 13.0519 -2.4038
v  3.7693 11.0539 -0.1208
v  0.3834 12.3841 -5.2462
v  8.2710 8.6846 -3.9391
v  8.4184 9.2867 -6.0597
v  5.1126 8.3166 -7.4591
v  -4.4074 13.6319 -6.4962
v  -0.8302 10.3982 -9.1110
v  -6.4339 9.8707 -6.0457
v  -2.2821 13.9594 -1.5799
v  -8.9271 10.7000 -2.3273
v  -7.4467 7.7157 2.3186
v  3.3693 11.0923 2.7087
v  -1.2554 9.5181 3.7602
v  2.6558 8.8328 6.0745
v  5.3624 8.4573 1.8952
v  7.8850 3.2072 0.1751
v  10.4543 5.9299 -4.7413
v  6.4282 0.2119 2.4470
v  10.3400 0.6025 0.1332
v  7.8114 1.9414 -5.9173
v  5.6219 4.4739 -7.4431
v  1.0290 5.6678 -9.7292
v  1.2187 0.9775 -6.4666
v  -3.8116 2.5659 -9.2416
v  -6.1448 4.4811 -7.2887
v  -8.5846 3.4894 -5.1378
v  -6.7658 1.4056 -4.3831
v  -7.2661 2.8126 -2.1667
v  -11.1540 4.8860 -0.2215
v  -4.1552 6.6090 5.5825
v  -8.6651 -0.1649 3.5718
v  -1.9661 2.0816 4.2920
v  0.7834 6.0679 6.1805
v  7.6115 4.3516 5.4281
v  2.4742 1.0047 6.4046
v  1.3510 -2.8578 -2.8452
v  -2.0262 -1.5220 -6.6484
v  4.7208 -1.2046 -3.9391
v  -2.8017 -2.8914 -3.8313
v  0.6549 -0.8156 1.3065
v  5.3472 -0.8748 0.9773
v  6.0641 -1.2984 -3.4889
v  11.8825 -2.4900 1.9253
v  9.3864 -2.2277 5.0400
v  -0.6515 -2.1173 0.7387
v  1.2016 0.9052 -3.1862
v  12.2074 1.5194 -3.8429
v  12.7645 2.0318 3.8441
v  11.1601 -0.8029 8.2781
v  2.3173 -0.2381 8.8168
v  -0.9414 2.4102 1.3913
v  3.9749 3.4640 -0.6560
v  5.7930 2.7877 8.1925
v  12.2469 3.2102 -6.8113
v  15.3294 2.5073 -4.2370
v  14.8549 0.5948 -4.0936
v  11.7372 -0.4315 -8.3295
v  9.2450 1.9879 -7.0626
v  11.4219 5.3543 -3.3797
v  12.0473 2.4721 -0.9587
v  14.5071 -0.0630 -1.9124
v  11.8865 -2.6567 -4.2817
v  8.0068 -0.2800 -5.7445
v  8.1290 2.0143 -4.1142
v  10.1886 -1.1170 -1.6543
v  1.6081 -1.1139 6.4229
v  1.6129 0.4212 2.6458
v  1.2024 2.2340 3.3156
v  2.4529 2.1558 8.5258
v  -0.1230 -0.4359 9.0898
v  -1.5577 -2.8720 4.4377
v  -3.0074 0.3774 3.0596
v  -0.6924 3.1199 2.3480
v  -0.5514 4.9094 6.3464
v  -1.9238 1.7624 9.6711
v  -3.1005 -0.2370 8.0729
v  -3.6592 3.4916 5.6475
v  -8.4741 2.3860 0.7230
v  -9.6399 5.1393 1.1245
v  -7.5769 5.1467 2.0034
v  -9.4788 7.4966 2.4813
v  -8.3453 8.4691 2.2965
v  -7.0312 7.7130 3.5102
v  -5.5173 2.0758 0.0702
v  -5.1887 5.2338 2.2446
v  -3.1274 2.5370 0.3208
v  -7.5420 0.1024 0.6285
v  -3.1666 -0.4068 0.3514
v  -6.0955 -0.9199 2.3435
v  -11.0912 1.8438 1.9130
v  -10.5023 -0.1833 2.9514
v  -12.4544 1.9732 4.5945
v  -11.4202 5.2799 3.7844
v  -10.3033 7.0725 5.5771
v  -8.8999 9.4223 4.3265
v  -10.0599 4.8541 8.1207
v  -9.3251 7.3247 7.3678
v  -7.0760 8.4459 6.5295
v  -6.6894 9.7860 4.7252
v  -4.4233 7.1496 4.7991
v  -4.0933 7.1462 7.2593
v  -2.1490 5.2567 5.8411
v  -3.0066 4.0516 3.2217
v  -2.5983 0.4847 1.7823
v  -2.1761 1.6899 4.8908
v  -3.5287 -1.0137 5.2927
v  -3.6683 -1.9149 3.8401
v  -7.3704 -2.0637 4.6350
v  -5.1100 -1.5116 6.7452
v  -7.1427 -1.0726 6.4604
v  -10.5841 0.0262 5.6084
v  -10.9225 3.6511 6.4551
v  -8.9345 1.2837 8.0364
v  -4.8066 3.6754 9.3819
v  -2.3940 4.2207 8.2791
v  -5.8556 5.9204 8.8578
v  -3.4282 1.1504 7.8002
v  -6.1585 1.1848 8.2403
v  -8.1313 4.1537 9.2931
v  -7.7920 0.8752 -5.4819
v  -8.7848 0.3964 -8.0839
v  -6.7473 2.1800 -5.6471
v  -9.7125 1.7789 -8.8170
v  -7.8323 3.0944 -8.2182
v  -6.8919 3.7273 -6.2532
v  -6.1777 2.0780 -2.2375
v  -5.6405 2.6066 -3.3327
v  -7.3205 2.6103 0.0529
v  -8.6894 0.5153 -2.9764
v  -8.9746 1.0011 1.2646
v  -10.8051 -0.9164 0.5526
v  -10.6027 -0.5800 -6.3891
v  -12.3662 -0.7375 -1.8525
v  -13.3940 -0.6099 -4.6753
v  -11.7666 0.6222 -7.8425
v  -11.5930 3.0450 -8.1126
v  -9.5064 4.9013 -9.4443
v  -14.4548 4.2450 -7.1028
v  -12.3682 5.3947 -7.7979
v  -10.3552 6.8349 -7.9065
v  -7.8304 5.9762 -8.0634
v  -7.0864 4.9312 -5.0620
v  -9.1664 7.5895 -5.1274
v  -8.2517 6.0020 -2.4366
v  -7.3128 3.9087 -1.3316
v  -9.1267 4.0718 1.7781
v  -9.0986 6.9130 0.4437
v  -10.0952 5.4988 2.2106
v  -10.5393 1.2063 2.8911
v  -13.6543 0.0714 0.5529
v  -12.4571 3.6227 0.9163
v  -15.5778 2.6435 -2.2337
v  -15.1180 0.4299 -2.9746
v  -14.0258 1.9203 -6.2262
v  -15.6458 3.6240 -5.3536
v  -13.6600 7.7153 -2.6114
v  -11.1847 7.9379 -2.1261
v  -12.1742 7.8327 -5.4426
v  -12.5527 7.2545 0.4983
v  -15.1864 5.5421 -1.8858
v  -14.2354 5.7756 -5.1670
v  0.0327 -1.8506 -10.7951
v  2.9527 -2.4712 -6.2310
v  1.0449 -1.6823 -4.7171
v  -4.9150 -1.7646 -8.7650
v  -2.7269 0.4962 -12.0340
v  4.5450 0.5371 -11.2000
v  4.1360 2.0784 -6.5244
v  2.0855 0.0579 -2.9723
v  -3.5640 1.0370 -4.0110
v  -4.3432 2.6617 -10.0040
v  -0.7551 3.1789 -10.9994
v  -0.7007 3.6956 -5.0119
# 174 vertices

vn 0.5493 0.8303 -0.0940
vn 0.6884 0.7184 0.1004
vn 0.4524 0.8216 -0.3470
vn 0.8032 0.5129 0.3029
vn 0.6914 0.5566 -0.4606
vn 0.4204 0.3297 -0.8453
vn -0.3198 0.7966 -0.5131
vn 0.0158 0.4528 -0.8915
vn -0.7367 0.1934 -0.6480
vn -0.1047 0.9580 0.2669
vn -0.8432 0.5364 0.0354
vn -0.6489 0.4593 0.6067
vn 0.4812 0.7626 0.4324
vn -0.2965 0.6764 0.6743
vn 0.1506 0.5287 0.8354
vn 0.8505 0.4565 0.2613
vn 0.8586 0.2909 0.4220
vn 0.9703 0.1330 -0.2021
vn 0.6100 -0.6188 0.4951
vn 0.8733 -0.3371 0.3518
vn 0.5680 -0.4584 -0.6836
vn 0.4441 -0.2095 -0.8711
vn 0.1554 -0.0998 -0.9828
vn 0.3402 -0.4707 -0.8141
vn -0.3510 -0.2512 -0.9021
vn -0.6843 -0.0340 -0.7284
vn -0.8176 -0.3605 -0.4490
vn -0.8070 -0.5700 -0.1545
vn -0.7632 -0.6320 -0.1343
vn -0.9934 -0.0826 0.0791
vn -0.3688 0.2544 0.8940
vn -0.6258 -0.5862 0.5146
vn -0.1966 -0.4912 0.8486
vn -0.1558 0.0747 0.9850
vn 0.8004 0.0483 0.5975
vn -0.0295 -0.5438 0.8387
vn 0.1892 -0.9819 -0.0059
vn -0.1155 -0.6967 -0.7080
vn 0.4446 -0.7934 -0.4157
vn -0.3523 -0.9239 -0.1494
vn -0.0374 -0.8927 0.4491
vn 0.2713 -0.9219 0.2764
vn -0.0166 -0.6592 -0.7518
vn 0.5842 -0.8084 -0.0726
vn 0.0484 -0.9756 0.2144
vn -0.7106 -0.6947 -0.1117
vn -0.5638 0.1477 -0.8126
vn 0.6478 0.2411 -0.7227
vn 0.8171 0.5560 0.1527
vn 0.5848 -0.2852 0.7594
vn -0.5446 -0.2403 0.8036
vn -0.8275 0.5615 0.0012
vn -0.1050 0.9552 -0.2766
vn -0.0226 0.7530 0.6576
vn 0.3152 0.5992 -0.7359
vn 0.9441 0.3016 -0.1329
vn 0.9146 -0.3134 -0.2556
vn 0.1811 -0.3626 -0.9142
vn -0.6188 0.3877 -0.6832
vn -0.0812 0.9746 0.2085
vn 0.0211 0.3475 0.9374
vn 0.7296 -0.3372 0.5950
vn 0.1401 -0.9897 -0.0288
vn -0.8851 -0.3904 -0.2533
vn -0.9321 0.2982 0.2056
vn -0.4324 -0.5229 0.7346
vn 0.7904 -0.5995 0.1262
vn 0.6951 -0.2017 -0.6900
vn 0.8404 0.4115 -0.3528
vn 0.8176 0.2610 0.5132
vn 0.1954 -0.5881 0.7848
vn -0.2076 -0.9399 -0.2710
vn -0.7176 -0.1967 -0.6681
vn -0.0173 0.5507 -0.8345
vn 0.1194 0.9858 0.1183
vn -0.3689 0.2235 0.9022
vn -0.7853 -0.4338 0.4417
vn -0.8532 0.5201 -0.0389
vn -0.2996 0.0973 -0.9491
vn -0.3081 0.2748 -0.9108
vn 0.2865 0.3832 -0.8781
vn -0.7740 0.4487 -0.4468
vn 0.0712 0.6050 -0.7930
vn 0.6539 0.3628 -0.6639
vn -0.0730 0.1884 -0.9794
vn 0.3753 0.5991 -0.7072
vn 0.6143 0.3292 -0.7172
vn -0.3205 -0.5415 -0.7772
vn 0.4928 -0.5337 -0.6873
vn -0.1793 -0.8808 -0.4382
vn -0.7700 -0.1503 -0.6200
vn -0.6523 -0.6820 -0.3307
vn -0.9816 -0.1445 0.1252
vn -0.9441 0.3038 -0.1281
vn -0.9042 0.3970 0.1576
vn -0.5523 0.8332 -0.0264
vn -0.7755 0.1293 0.6179
vn -0.5405 0.5733 0.6158
vn -0.0201 0.7737 0.6332
vn 0.3360 0.9399 -0.0609
vn 0.7281 0.5731 -0.3762
vn 0.5924 0.6811 0.4303
vn 0.9316 0.3542 -0.0813
vn 0.8638 0.3700 -0.3421
vn 0.9845 -0.1325 -0.1147
vn 0.9893 -0.1440 0.0246
vn 0.8325 -0.4837 0.2702
vn 0.5359 -0.8404 -0.0811
vn -0.2862 -0.9582 -0.0075
vn 0.1955 -0.7711 0.6059
vn -0.3423 -0.7089 0.6167
vn -0.7121 -0.5898 0.3808
vn -0.9025 0.0210 0.4302
vn -0.4837 -0.4285 0.7632
vn 0.2352 -0.0778 0.9688
vn 0.8089 0.1076 0.5781
vn 0.1149 0.4863 0.8662
vn 0.6333 -0.4249 0.6468
vn -0.0092 -0.4741 0.8804
vn -0.3204 0.0145 0.9472
vn 0.7010 -0.7111 -0.0545
vn 0.4523 -0.6639 -0.5955
vn 0.9073 -0.3241 -0.2679
vn 0.0008 -0.2568 -0.9665
vn 0.7804 -0.1279 -0.6121
vn 0.9589 0.0933 -0.2680
vn 0.8618 -0.4572 0.2197
vn 0.9924 -0.1214 0.0191
vn 0.8778 0.0114 0.4789
vn 0.5425 -0.8385 0.0509
vn 0.7599 -0.4513 0.4679
vn 0.1955 -0.9314 0.3069
vn 0.1139 -0.9611 -0.2516
vn -0.1257 -0.9920 0.0125
vn -0.5027 -0.8306 -0.2395
vn -0.4802 -0.4876 -0.7292
vn -0.5451 -0.1095 -0.8312
vn 0.0529 0.1790 -0.9824
vn -0.7323 0.1374 -0.6670
vn -0.5843 0.3546 -0.7300
vn -0.1074 0.7775 -0.6197
vn 0.7159 0.5027 -0.4845
vn 0.9065 0.4222 -0.0058
vn 0.5197 0.8524 -0.0577
vn 0.8240 0.5565 0.1065
vn 0.8841 0.3796 0.2724
vn 0.7648 0.1181 0.6333
vn 0.6093 0.6929 0.3855
vn 0.1166 0.3630 0.9245
vn 0.0452 -0.2633 0.9636
vn -0.7077 -0.4857 0.5131
vn -0.7241 0.1092 0.6810
vn -0.9612 -0.0373 0.2733
vn -0.8455 -0.5339 -0.0127
vn -0.7502 -0.3537 -0.5587
vn -0.9550 0.0256 -0.2954
vn -0.5942 0.8039 0.0242
vn 0.2016 0.9728 0.1142
vn -0.3534 0.8785 -0.3214
vn -0.4333 0.6659 0.6073
vn -0.9229 0.2792 0.2653
vn -0.7993 0.5158 -0.3082
vn 0.0680 -0.8256 -0.5601
vn 0.4694 -0.8617 0.1928
vn -0.1352 -0.8410 0.5238
vn -0.7610 -0.6442 -0.0768
vn -0.3856 -0.0864 -0.9186
vn 0.7866 0.0217 -0.6171
vn 0.8437 0.5006 0.1938
vn 0.3832 -0.1050 0.9177
vn -0.6901 0.0384 0.7227
vn -0.7560 0.5833 -0.2969
vn 0.0638 0.8080 -0.5857
vn -0.0594 0.8931 0.4459
# 174 vertex normals

vt 1.4083 0.9918 1.7737
vt 1.2479 1.0738 1.5358
vt 1.4761 0.7850 1.8040
vt 1.1315 0.6161 1.8330
vt 1.1884 0.5054 2.1068
vt 1.3089 0.3443 1.8053
vt 1.6029 0.8742 2.3192
vt 1.6075 0.5376 2.0720
vt 1.7328 0.8872 1.8233
vt 1.4860 1.1362 1.9929
vt 1.7301 1.2194 1.9962
vt 1.8137 1.6554 1.6847
vt 1.2051 1.2972 1.7833
vt 1.2883 1.6390 1.5746
vt 1.0709 1.5248 2.0345
vt 1.0778 1.1708 1.5046
vt 0.8346 0.8792 1.6718
vt 0.9934 0.5181 2.1246
vt 0.7139 1.0574 2.0048
vt 0.7746 0.8361 2.3236
vt 0.7496 0.3909 1.9892
vt 0.9175 0.1624 1.7578
vt 1.7891 0.2098 1.8946
vt 0.3637 0.4011 1.5678
vt -0.2109 0.2098 1.8946
vt 0.0513 0.4992 1.9993
vt -0.2672 0.8872 1.8233
vt -0.0357 0.7029 1.7095
vt 0.0168 0.9422 1.7887
vt 0.1287 0.9202 1.6527
vt 0.0976 1.1523 1.4320
vt -0.0098 1.3672 2.0315
vt 0.9722 1.9781 1.8438
vt 0.2676 1.4573 2.3678
vt 0.5304 1.5667 1.6292
vt 0.9060 1.6529 1.8411
vt 0.8736 1.2467 2.2283
vt 0.6861 1.4124 2.2152
vt 1.9643 0.7029 1.7095
vt 1.9902 1.3672 2.0315
vt -0.2699 1.2194 1.9962
vt 0.4628 0.7940 1.9969
vt 0.2843 0.6237 2.0342
vt 0.5656 0.6192 1.9023
vt 0.3336 0.8370 2.0746
vt 0.5260 1.1372 1.6416
vt 0.6512 0.9741 1.9264
vt 1.4299 0.6118 0.7050
vt 1.2267 0.3293 0.8554
vt 1.2414 0.1526 0.7530
vt 1.7576 0.4190 0.8437
vt 1.7911 0.8046 0.6612
vt 1.0385 0.7191 0.9817
vt 0.7808 0.4996 0.8178
vt 0.7989 0.1644 0.8918
vt -0.7586 0.1526 0.7530
vt 0.1997 0.2249 0.9200
vt -0.2424 0.4190 0.8437
vt 0.1675 0.6473 0.7715
vt -0.2089 0.8046 0.6612
vt 0.4438 0.8061 0.7866
vt 0.4589 0.4148 0.9524
vt 0.7150 0.6118 0.7050
vt 0.6133 0.3293 0.8554
vt 0.6207 0.1526 0.7530
vt 0.8788 0.4190 0.8437
vt 0.8955 0.8046 0.6612
vt 0.5192 0.7191 0.9817
vt 0.3904 0.4996 0.8178
vt 0.3995 0.1644 0.8918
vt -0.3793 0.1526 0.7530
vt 0.0998 0.2249 0.9200
vt -0.1212 0.4190 0.8437
vt 0.0838 0.6473 0.7715
vt -0.1045 0.8046 0.6612
vt 0.2219 0.8061 0.7866
vt 0.2295 0.4148 0.9524
vt 0.6572 0.4712 0.8036
vt 0.6916 0.3547 0.5474
vt 0.6347 0.2485 0.9478
vt 0.8153 0.5218 0.7276
vt 0.8115 0.2233 0.5862
vt 0.7746 0.7246 0.7816
vt 0.9038 0.5811 0.9063
vt 0.6256 0.7044 0.8922
vt 0.6048 0.8369 0.9032
vt 0.5549 0.5195 0.7955
vt 0.4927 0.3701 0.7795
vt 0.5481 0.2189 0.9985
vt 0.4171 0.3306 0.8423
vt 0.5310 0.1019 1.0586
vt 0.0913 0.0497 0.8062
vt 0.2187 0.1756 0.9679
vt 0.9683 0.2625 0.6620
vt 0.9461 0.5201 0.7737
vt -0.0317 0.2625 0.6620
vt 0.0596 0.4271 0.7340
vt -0.0539 0.5201 0.7737
vt 0.0275 0.7036 0.8223
vt 0.1327 0.9244 0.8355
vt 0.1565 0.7170 0.8657
vt 0.4378 0.8265 0.8899
vt 0.4454 0.6087 0.7428
vt 0.3245 0.6812 0.8138
vt -0.1885 0.2233 0.5862
vt -0.0962 0.5811 0.9063
vt 0.1672 0.3312 1.0432
vt 0.2752 0.3135 0.9052
vt 0.1611 0.5048 0.8642
vt 0.2343 0.5963 0.7670
vt 0.3178 0.4802 0.8692
vt 0.6927 0.4147 0.7176
vt 0.6216 0.4296 0.9189
vt 0.7166 0.3008 0.7864
vt 0.5723 0.3823 0.8526
vt 0.6169 0.2506 0.8767
vt 0.7028 0.1894 0.7983
vt 0.8211 0.3813 0.7807
vt 0.8041 0.3139 0.8592
vt 0.8986 0.4673 0.7004
vt 0.7482 0.5651 0.5528
vt 0.8999 0.6636 0.7479
vt 0.8334 0.8224 0.8648
vt 0.6088 0.5869 0.7980
vt 0.6552 0.8896 0.7666
vt 0.5329 0.7694 0.8408
vt 0.5434 0.5420 0.8118
vt 0.4882 0.4051 0.6978
vt 0.5020 0.2218 0.9475
vt 0.3843 0.5114 0.8541
vt 0.3924 0.3446 0.7859
vt 0.3763 0.1881 0.9082
vt 0.5368 0.0960 0.9805
vt 0.7958 0.1098 0.7422
vt 0.2084 0.1340 0.8581
vt -0.2042 0.1098 0.7422
vt 0.0299 0.2056 0.6543
vt -0.1014 0.4673 0.7004
vt -0.0867 0.3333 0.6231
vt 0.0029 0.5291 0.7533
vt 0.0669 0.3723 0.8847
vt 0.0576 0.5138 0.8847
vt -0.1666 0.8224 0.8648
vt -0.0335 0.7388 0.9072
vt 0.0920 0.9507 0.9365
vt 0.1117 0.7035 0.7005
vt 0.2999 0.7591 0.8995
vt 0.4062 0.8371 0.9263
vt 0.4410 0.6350 0.7457
vt 0.3560 0.6224 0.9157
vt 0.9133 0.3333 0.6231
vt 0.9665 0.7388 0.9072
vt -0.1001 0.6636 0.7479
vt -0.3448 0.8896 0.7666
vt 0.2249 0.4503 0.9774
vt 0.1715 0.3445 0.8720
vt 0.2727 0.3091 0.9050
vt 0.1518 0.4960 0.9887
vt 0.2439 0.6049 0.9447
vt 0.3108 0.4847 0.8128
# 160 texture coords

g GeoSphere002
usemtl Rock1Mtl
s 1
f 1/1/1 2/2/2 3/3/3 
f 2/2/2 4/4/4 5/5/5 
f 2/2/2 5/5/5 3/3/3 
f 3/3/3 5/5/5 6/6/6 
f 1/1/1 3/3/3 7/7/7 
f 3/3/3 6/6/6 8/8/8 
f 3/3/3 8/8/8 7/7/7 
f 7/7/7 8/8/8 9/9/9 
f 1/1/1 7/7/7 10/10/10 
f 7/7/7 9/9/9 11/11/11 
f 7/7/7 11/11/11 10/10/10 
f 10/10/10 11/11/11 12/12/12 
f 1/1/1 10/10/10 13/13/13 
f 10/10/10 12/12/12 14/14/14 
f 10/10/10 14/14/14 13/13/13 
f 13/13/13 14/14/14 15/15/15 
f 1/1/1 13/13/13 2/2/2 
f 13/13/13 15/15/15 16/16/16 
f 13/13/13 16/16/16 2/2/2 
f 2/2/2 16/16/16 4/4/4 
f 4/4/4 17/17/17 18/18/18 
f 17/17/17 19/19/19 20/20/20 
f 17/17/17 20/20/20 18/18/18 
f 18/18/18 20/20/20 21/21/21 
f 6/6/6 22/22/22 23/23/23 
f 22/22/22 21/21/21 24/24/24 
f 22/22/22 24/24/24 23/25/23 
f 23/25/23 24/24/24 25/26/25 
f 9/27/9 26/28/26 27/29/27 
f 26/28/26 25/26/25 28/30/28 
f 26/28/26 28/30/28 27/29/27 
f 27/29/27 28/30/28 29/31/29 
f 12/12/12 30/32/30 31/33/31 
f 30/32/30 29/31/29 32/34/32 
f 30/32/30 32/34/32 31/33/31 
f 31/33/31 32/34/32 33/35/33 
f 15/15/15 34/36/34 35/37/35 
f 34/36/34 33/35/33 36/38/36 
f 34/36/34 36/38/36 35/37/35 
f 35/37/35 36/38/36 19/19/19 
f 21/21/21 22/22/22 18/18/18 
f 22/22/22 6/6/6 5/5/5 
f 22/22/22 5/5/5 18/18/18 
f 18/18/18 5/5/5 4/4/4 
f 25/26/25 26/28/26 23/25/23 
f 26/39/26 9/9/9 8/8/8 
f 26/39/26 8/8/8 23/23/23 
f 23/23/23 8/8/8 6/6/6 
f 29/31/29 30/32/30 27/29/27 
f 30/40/30 12/12/12 11/11/11 
f 30/32/30 11/41/11 27/29/27 
f 27/29/27 11/41/11 9/27/9 
f 33/35/33 34/36/34 31/33/31 
f 34/36/34 15/15/15 14/14/14 
f 34/36/34 14/14/14 31/33/31 
f 31/33/31 14/14/14 12/12/12 
f 19/19/19 17/17/17 35/37/35 
f 17/17/17 4/4/4 16/16/16 
f 17/17/17 16/16/16 35/37/35 
f 35/37/35 16/16/16 15/15/15 
f 37/42/37 38/43/38 39/44/39 
f 38/43/38 25/26/25 24/24/24 
f 38/43/38 24/24/24 39/44/39 
f 39/44/39 24/24/24 21/21/21 
f 37/42/37 40/45/40 38/43/38 
f 40/45/40 29/31/29 28/30/28 
f 40/45/40 28/30/28 38/43/38 
f 38/43/38 28/30/28 25/26/25 
f 37/42/37 41/46/41 40/45/40 
f 41/46/41 33/35/33 32/34/32 
f 41/46/41 32/34/32 40/45/40 
f 40/45/40 32/34/32 29/31/29 
f 37/42/37 42/47/42 41/46/41 
f 42/47/42 19/19/19 36/38/36 
f 42/47/42 36/38/36 41/46/41 
f 41/46/41 36/38/36 33/35/33 
f 37/42/37 39/44/39 42/47/42 
f 39/44/39 21/21/21 20/20/20 
f 39/44/39 20/20/20 42/47/42 
f 42/47/42 20/20/20 19/19/19 
f 43/48/43 44/49/44 45/50/45 
f 43/48/43 45/50/45 46/51/46 
f 43/48/43 46/51/46 47/52/47 
f 43/48/43 47/52/47 48/53/48 
f 43/48/43 48/53/48 44/49/44 
f 44/49/44 49/54/49 50/55/50 
f 45/56/45 50/55/50 51/57/51 
f 46/58/46 51/57/51 52/59/52 
f 47/60/47 52/59/52 53/61/53 
f 48/53/48 53/61/53 49/54/49 
f 50/55/50 45/50/45 44/49/44 
f 51/57/51 46/58/46 45/56/45 
f 52/59/52 47/60/47 46/58/46 
f 53/61/53 48/53/48 47/60/47 
f 49/54/49 44/49/44 48/53/48 
f 54/62/54 51/57/51 50/55/50 
f 54/62/54 52/59/52 51/57/51 
f 54/62/54 53/61/53 52/59/52 
f 54/62/54 49/54/49 53/61/53 
f 54/62/54 50/55/50 49/54/49 
f 55/63/55 56/64/56 57/65/57 
f 55/63/55 57/65/57 58/66/58 
f 55/63/55 58/66/58 59/67/59 
f 55/63/55 59/67/59 60/68/60 
f 55/63/55 60/68/60 56/64/56 
f 56/64/56 61/69/61 62/70/62 
f 57/71/57 62/70/62 63/72/63 
f 58/73/58 63/72/63 64/74/64 
f 59/75/59 64/74/64 65/76/65 
f 60/68/60 65/76/65 61/69/61 
f 62/70/62 57/65/57 56/64/56 
f 63/72/63 58/73/58 57/71/57 
f 64/74/64 59/75/59 58/73/58 
f 65/76/65 60/68/60 59/75/59 
f 61/69/61 56/64/56 60/68/60 
f 66/77/66 63/72/63 62/70/62 
f 66/77/66 64/74/64 63/72/63 
f 66/77/66 65/76/65 64/74/64 
f 66/77/66 61/69/61 65/76/65 
f 66/77/66 62/70/62 61/69/61 
f 67/63/67 68/64/68 69/65/69 
f 67/63/67 69/65/69 70/66/70 
f 67/63/67 70/66/70 71/67/71 
f 67/63/67 71/67/71 72/68/72 
f 67/63/67 72/68/72 68/64/68 
f 68/64/68 73/69/73 74/70/74 
f 69/71/69 74/70/74 75/72/75 
f 70/73/70 75/72/75 76/74/76 
f 71/75/71 76/74/76 77/76/77 
f 72/68/72 77/76/77 73/69/73 
f 74/70/74 69/65/69 68/64/68 
f 75/72/75 70/73/70 69/71/69 
f 76/74/76 71/75/71 70/73/70 
f 77/76/77 72/68/72 71/75/71 
f 73/69/73 68/64/68 72/68/72 
f 78/77/78 75/72/75 74/70/74 
f 78/77/78 76/74/76 75/72/75 
f 78/77/78 77/76/77 76/74/76 
f 78/77/78 73/69/73 77/76/77 
f 78/77/78 74/70/74 73/69/73 
f 79/63/79 80/78/80 81/79/81 
f 80/78/80 82/64/82 83/80/83 
f 80/78/80 83/80/83 81/79/81 
f 81/79/81 83/80/83 84/65/84 
f 79/63/79 81/79/81 85/81/85 
f 81/79/81 84/65/84 86/82/86 
f 81/79/81 86/82/86 85/81/85 
f 85/81/85 86/82/86 87/66/87 
f 79/63/79 85/81/85 88/83/88 
f 85/81/85 87/66/87 89/84/89 
f 85/81/85 89/84/89 88/83/88 
f 88/83/88 89/84/89 90/67/90 
f 79/63/79 88/83/88 91/85/91 
f 88/83/88 90/67/90 92/86/92 
f 88/83/88 92/86/92 91/85/91 
f 91/85/91 92/86/92 93/68/93 
f 79/63/79 91/85/91 80/78/80 
f 91/85/91 93/68/93 94/87/94 
f 91/85/91 94/87/94 80/78/80 
f 80/78/80 94/87/94 82/64/82 
f 82/64/82 95/88/95 96/89/96 
f 95/88/95 97/69/97 98/90/98 
f 95/88/95 98/90/98 96/89/96 
f 96/89/96 98/90/98 99/70/99 
f 84/71/84 100/91/100 101/92/101 
f 100/91/100 99/70/99 102/93/102 
f 100/91/100 102/93/102 101/92/101 
f 101/92/101 102/93/102 103/72/103 
f 87/66/87 104/94/104 105/95/105 
f 104/96/104 103/72/103 106/97/106 
f 104/96/104 106/97/106 105/98/105 
f 105/98/105 106/97/106 107/74/107 
f 90/75/90 108/99/108 109/100/109 
f 108/99/108 107/74/107 110/101/110 
f 108/99/108 110/101/110 109/100/109 
f 109/100/109 110/101/110 111/76/111 
f 93/68/93 112/102/112 113/103/113 
f 112/102/112 111/76/111 114/104/114 
f 112/102/112 114/104/114 113/103/113 
f 113/103/113 114/104/114 97/69/97 
f 99/70/99 100/91/100 96/89/96 
f 100/91/100 84/65/84 83/80/83 
f 100/91/100 83/80/83 96/89/96 
f 96/89/96 83/80/83 82/64/82 
f 103/72/103 104/96/104 101/92/101 
f 104/94/104 87/66/87 86/82/86 
f 104/96/104 86/105/86 101/92/101 
f 101/92/101 86/105/86 84/71/84 
f 107/74/107 108/99/108 105/98/105 
f 108/99/108 90/75/90 89/106/89 
f 108/99/108 89/106/89 105/98/105 
f 105/95/105 89/84/89 87/66/87 
f 111/76/111 112/102/112 109/100/109 
f 112/102/112 93/68/93 92/86/92 
f 112/102/112 92/86/92 109/100/109 
f 109/100/109 92/86/92 90/75/90 
f 97/69/97 95/88/95 113/103/113 
f 95/88/95 82/64/82 94/87/94 
f 95/88/95 94/87/94 113/103/113 
f 113/103/113 94/87/94 93/68/93 
f 115/77/115 116/107/116 117/108/117 
f 116/107/116 103/72/103 102/93/102 
f 116/107/116 102/93/102 117/108/117 
f 117/108/117 102/93/102 99/70/99 
f 115/77/115 118/109/118 116/107/116 
f 118/109/118 107/74/107 106/97/106 
f 118/109/118 106/97/106 116/107/116 
f 116/107/116 106/97/106 103/72/103 
f 115/77/115 119/110/119 118/109/118 
f 119/110/119 111/76/111 110/101/110 
f 119/110/119 110/101/110 118/109/118 
f 118/109/118 110/101/110 107/74/107 
f 115/77/115 120/111/120 119/110/119 
f 120/111/120 97/69/97 114/104/114 
f 120/111/120 114/104/114 119/110/119 
f 119/110/119 114/104/114 111/76/111 
f 115/77/115 117/108/117 120/111/120 
f 117/108/117 99/70/99 98/90/98 
f 117/108/117 98/90/98 120/111/120 
f 120/111/120 98/90/98 97/69/97 
f 121/112/121 122/113/122 123/114/123 
f 122/113/122 124/115/124 125/116/125 
f 122/113/122 125/116/125 123/114/123 
f 123/114/123 125/116/125 126/117/126 
f 121/112/121 123/114/123 127/118/127 
f 123/114/123 126/117/126 128/119/128 
f 123/114/123 128/119/128 127/118/127 
f 127/118/127 128/119/128 129/120/129 
f 121/112/121 127/118/127 130/121/130 
f 127/118/127 129/120/129 131/122/131 
f 127/118/127 131/122/131 130/121/130 
f 130/121/130 131/122/131 132/123/132 
f 121/112/121 130/121/130 133/124/133 
f 130/121/130 132/123/132 134/125/134 
f 130/121/130 134/125/134 133/124/133 
f 133/124/133 134/125/134 135/126/135 
f 121/112/121 133/124/133 122/113/122 
f 133/124/133 135/126/135 136/127/136 
f 133/124/133 136/127/136 122/113/122 
f 122/113/122 136/127/136 124/115/124 
f 124/115/124 137/128/137 138/129/138 
f 137/128/137 139/130/139 140/131/140 
f 137/128/137 140/131/140 138/129/138 
f 138/129/138 140/131/140 141/132/141 
f 126/117/126 142/133/142 143/134/143 
f 142/133/142 141/132/141 144/135/144 
f 142/133/142 144/135/144 143/136/143 
f 143/136/143 144/135/144 145/137/145 
f 129/138/129 146/139/146 147/140/147 
f 146/139/146 145/137/145 148/141/148 
f 146/139/146 148/141/148 147/140/147 
f 147/140/147 148/141/148 149/142/149 
f 132/143/132 150/144/150 151/145/151 
f 150/144/150 149/142/149 152/146/152 
f 150/144/150 152/146/152 151/145/151 
f 151/145/151 152/146/152 153/147/153 
f 135/126/135 154/148/154 155/149/155 
f 154/148/154 153/147/153 156/150/156 
f 154/148/154 156/150/156 155/149/155 
f 155/149/155 156/150/156 139/130/139 
f 141/132/141 142/133/142 138/129/138 
f 142/133/142 126/117/126 125/116/125 
f 142/133/142 125/116/125 138/129/138 
f 138/129/138 125/116/125 124/115/124 
f 145/137/145 146/139/146 143/136/143 
f 146/151/146 129/120/129 128/119/128 
f 146/151/146 128/119/128 143/134/143 
f 143/134/143 128/119/128 126/117/126 
f 149/142/149 150/144/150 147/140/147 
f 150/152/150 132/123/132 131/122/131 
f 150/144/150 131/153/131 147/140/147 
f 147/140/147 131/153/131 129/138/129 
f 153/147/153 154/148/154 151/145/151 
f 154/148/154 135/126/135 134/125/134 
f 154/148/154 134/154/134 151/145/151 
f 151/145/151 134/154/134 132/143/132 
f 139/130/139 137/128/137 155/149/155 
f 137/128/137 124/115/124 136/127/136 
f 137/128/137 136/127/136 155/149/155 
f 155/149/155 136/127/136 135/126/135 
f 157/155/157 158/156/158 159/157/159 
f 158/156/158 145/137/145 144/135/144 
f 158/156/158 144/135/144 159/157/159 
f 159/157/159 144/135/144 141/132/141 
f 157/155/157 160/158/160 158/156/158 
f 160/158/160 149/142/149 148/141/148 
f 160/158/160 148/141/148 158/156/158 
f 158/156/158 148/141/148 145/137/145 
f 157/155/157 161/159/161 160/158/160 
f 161/159/161 153/147/153 152/146/152 
f 161/159/161 152/146/152 160/158/160 
f 160/158/160 152/146/152 149/142/149 
f 157/155/157 162/160/162 161/159/161 
f 162/160/162 139/130/139 156/150/156 
f 162/160/162 156/150/156 161/159/161 
f 161/159/161 156/150/156 153/147/153 
f 157/155/157 159/157/159 162/160/162 
f 159/157/159 141/132/141 140/131/140 
f 159/157/159 140/131/140 162/160/162 
f 162/160/162 140/131/140 139/130/139 
f 163/63/163 164/64/164 165/65/165 
f 163/63/163 165/65/165 166/66/166 
f 163/63/163 166/66/166 167/67/167 
f 163/63/163 167/67/167 168/68/168 
f 163/63/163 168/68/168 164/64/164 
f 164/64/164 169/69/169 170/70/170 
f 165/71/165 170/70/170 171/72/171 
f 166/73/166 171/72/171 172/74/172 
f 167/75/167 172/74/172 173/76/173 
f 168/68/168 173/76/173 169/69/169 
f 170/70/170 165/65/165 164/64/164 
f 171/72/171 166/73/166 165/71/165 
f 172/74/172 167/75/167 166/73/166 
f 173/76/173 168/68/168 167/75/167 
f 169/69/169 164/64/164 168/68/168 
f 174/77/174 171/72/171 170/70/170 
f 174/77/174 172/74/172 171/72/171 
f 174/77/174 173/76/173 172/74/172 
f 174/77/174 169/69/169 173/76/173 
f 174/77/174 170/70/170 169/69/169 
# 0 polygons - 320 triangles

