# 3ds Max Wavefront OBJ Exporter v0.97b - (c)2007 guruware
# File Created: 19.09.2011 17:53:22

mtllib Rock1.mtl

#
# object Cylinder009
#

v  12.1586 -2.7647 9.1603
v  9.6630 -4.8193 -13.2382
v  9.4186 2.1949 -12.5046
v  12.7128 4.2495 8.1792
v  -12.6387 -6.6221 -10.1900
v  -12.9909 0.3920 -10.0184
v  -9.7996 -2.9135 11.4708
v  -10.3144 4.1007 11.9918
v  -1.1820 50.2622 -1.3621
v  -1.0810 51.0916 0.4361
v  0.3417 50.6085 0.3946
v  0.2495 49.5906 -1.4227
v  4.7842 8.6980 -6.8631
v  6.5880 9.4522 4.2101
v  -6.9488 8.3666 -5.9751
v  -5.7507 9.1092 6.3986
v  7.9172 16.0876 -11.0994
v  9.4104 16.8702 7.2731
v  -9.4217 15.0580 -8.3375
v  -7.0805 18.1380 8.2146
v  3.3629 27.0311 -5.6414
v  4.0934 27.8397 3.2015
v  -3.8871 29.0802 -6.5321
v  -3.9238 27.8299 4.2631
# 24 vertices

vn 0.6866 -0.4110 0.5997
vn 0.5722 -0.5642 -0.5952
vn 0.5914 0.1391 -0.7943
vn 0.8106 0.1873 0.5549
vn -0.5383 -0.7647 -0.3542
vn -0.7857 0.0937 -0.6115
vn -0.5060 -0.4045 0.7618
vn -0.6212 0.1949 0.7591
vn -0.4216 0.4003 -0.8136
vn -0.2097 0.9624 0.1727
vn 0.8262 0.4976 0.2640
vn 0.6719 0.1148 -0.7317
vn 0.5934 0.0923 -0.7996
vn 0.8135 0.0847 0.5754
vn -0.7633 0.1069 -0.6371
vn -0.6276 0.1379 0.7663
vn 0.6135 0.0012 -0.7897
vn 0.7619 0.0179 0.6475
vn -0.8005 -0.0395 -0.5981
vn -0.6437 0.0630 0.7627
vn 0.7019 0.0928 -0.7062
vn 0.7803 0.1164 0.6144
vn -0.6357 0.0882 -0.7669
vn -0.6474 0.1173 0.7531
# 24 vertex normals

vt 1.2274 -0.0685 0.1879
vt 1.6164 -0.1370 0.1676
vt 1.6110 0.0968 0.1604
vt 1.2433 0.1652 0.1866
vt 2.0338 -0.1971 0.1686
vt 2.0393 0.0367 0.1705
vt 0.8293 -0.0735 0.1536
vt 0.8272 0.1603 0.1609
vt 0.4093 0.0367 0.1705
vt 0.4038 -0.1971 0.1686
vt -0.0136 -0.1370 0.1676
vt -0.4026 -0.0685 0.1879
vt -0.8007 -0.0735 0.1536
vt 1.8579 1.6985 0.0060
vt 2.6340 1.7261 0.0133
vt 2.8448 1.7100 0.0213
vt 1.4944 1.6761 0.0154
vt 1.5999 0.3135 0.0861
vt 1.2429 0.3386 0.1039
vt 2.0244 0.3024 0.0884
vt 0.8418 0.3272 0.0876
vt 0.3944 0.3024 0.0884
vt 1.6147 0.5597 0.1395
vt 1.2249 0.5858 0.1502
vt 2.0215 0.5254 0.1271
vt 0.8383 0.6280 0.1105
vt 0.3915 0.5254 0.1271
vt 1.6072 0.9244 0.0670
vt 1.2243 0.9513 0.0743
vt 1.9311 0.9927 0.0708
vt 0.8604 0.9510 0.0594
vt 0.3011 0.9927 0.0708
vt 1.2148 1.7100 0.0213
vt -0.1356 1.6761 0.0154
vt -0.0228 0.9244 0.0670
vt 0.2279 1.6985 0.0060
vt 1.0040 1.7261 0.0133
# 37 texture coords

g Cylinder009
usemtl Rock1Mtl
s 1
f 1/1/1 2/2/2 3/3/3 4/4/4 
f 2/2/2 5/5/5 6/6/6 3/3/3 
f 7/7/7 8/8/8 6/9/6 5/10/5 
f 1/1/1 4/4/4 8/8/8 7/7/7 
f 2/11/2 1/12/1 7/13/7 5/10/5 
f 9/14/9 10/15/10 11/16/11 12/17/12 
f 4/4/4 3/3/3 13/18/13 14/19/14 
f 3/3/3 6/6/6 15/20/15 13/18/13 
f 8/8/8 16/21/16 15/22/15 6/9/6 
f 4/4/4 14/19/14 16/21/16 8/8/8 
f 14/19/14 13/18/13 17/23/17 18/24/18 
f 13/18/13 15/20/15 19/25/19 17/23/17 
f 16/21/16 20/26/20 19/27/19 15/22/15 
f 14/19/14 18/24/18 20/26/20 16/21/16 
f 21/28/21 22/29/22 18/24/18 17/23/17 
f 19/25/19 23/30/23 21/28/21 17/23/17 
f 20/26/20 24/31/24 23/32/23 19/27/19 
f 22/29/22 24/31/24 20/26/20 18/24/18 
f 12/17/12 11/33/11 22/29/22 21/28/21 
f 12/34/12 21/35/21 23/32/23 9/36/9 
f 9/36/9 23/32/23 24/31/24 10/37/10 
f 11/33/11 10/37/10 24/31/24 22/29/22 
# 22 polygons

