# 3ds Max Wavefront OBJ Exporter v0.97b - (c)2007 guruware
# File Created: 19.09.2011 17:51:44

mtllib Rock1.mtl

#
# object GeoSphere003
#

v  1.0070 13.0519 -2.5211
v  3.8479 11.0539 -0.2380
v  0.4620 12.3841 -5.3635
v  8.3496 8.6846 -4.0564
v  8.4970 9.2867 -6.1769
v  5.1912 8.3166 -7.5763
v  -4.3288 13.6319 -6.6135
v  -0.7516 10.3982 -9.2283
v  -6.3553 9.8707 -6.1629
v  -2.2035 13.9594 -1.6972
v  -8.8485 10.7000 -2.4445
v  -7.3681 7.7157 2.2013
v  3.4479 11.0923 2.5914
v  -1.1768 9.5181 3.6429
v  2.7344 8.8328 5.9573
v  5.4410 8.4573 1.7779
v  7.9636 3.2072 0.0578
v  10.5329 5.9299 -4.8586
v  6.5069 0.2119 2.3297
v  10.4186 0.6025 0.0159
v  7.8901 1.9414 -6.0345
v  5.7005 4.4739 -7.5604
v  1.1076 5.6678 -9.8465
v  1.2973 0.9775 -6.5839
v  -3.7330 2.5659 -9.3589
v  -6.0662 4.4811 -7.4060
v  -8.5060 3.4894 -5.2551
v  -6.6872 1.4056 -4.5004
v  -7.1875 2.8126 -2.2839
v  -11.0753 4.8860 -0.3387
v  -4.0766 6.6090 5.4652
v  -8.5865 -0.1649 3.4545
v  -1.8875 2.0816 4.1747
v  0.8620 6.0679 6.0632
v  7.6901 4.3516 5.3108
v  2.5528 1.0047 6.2873
v  1.4296 -2.8578 -2.9624
v  -1.9476 -1.5220 -6.7656
v  4.7995 -1.2046 -4.0563
v  -2.7231 -2.8914 -3.9485
v  0.7335 -0.8156 1.1892
v  5.4258 -0.8748 0.8600
# 42 vertices

vn 0.5493 0.8303 -0.0940
vn 0.6884 0.7184 0.1004
vn 0.4524 0.8216 -0.3470
vn 0.8032 0.5129 0.3029
vn 0.6914 0.5566 -0.4606
vn 0.4204 0.3297 -0.8453
vn -0.3198 0.7966 -0.5131
vn 0.0158 0.4528 -0.8915
vn -0.7367 0.1934 -0.6480
vn -0.1047 0.9580 0.2669
vn -0.8432 0.5364 0.0354
vn -0.6489 0.4593 0.6067
vn 0.4812 0.7626 0.4324
vn -0.2965 0.6764 0.6743
vn 0.1506 0.5287 0.8354
vn 0.8505 0.4565 0.2613
vn 0.8586 0.2909 0.4220
vn 0.9703 0.1330 -0.2021
vn 0.6100 -0.6188 0.4951
vn 0.8733 -0.3371 0.3518
vn 0.5680 -0.4584 -0.6836
vn 0.4441 -0.2095 -0.8711
vn 0.1554 -0.0998 -0.9828
vn 0.3402 -0.4707 -0.8141
vn -0.3510 -0.2512 -0.9021
vn -0.6843 -0.0340 -0.7284
vn -0.8176 -0.3605 -0.4490
vn -0.8070 -0.5700 -0.1545
vn -0.7632 -0.6320 -0.1343
vn -0.9934 -0.0826 0.0791
vn -0.3688 0.2544 0.8940
vn -0.6258 -0.5862 0.5146
vn -0.1966 -0.4912 0.8486
vn -0.1558 0.0747 0.9850
vn 0.8004 0.0483 0.5975
vn -0.0295 -0.5438 0.8387
vn 0.1892 -0.9819 -0.0059
vn -0.1155 -0.6967 -0.7080
vn 0.4446 -0.7934 -0.4157
vn -0.3523 -0.9239 -0.1494
vn -0.0374 -0.8927 0.4491
vn 0.2713 -0.9219 0.2764
# 42 vertex normals

vt 1.4465 0.9329 1.8909
vt 1.3063 1.0610 1.6364
vt 1.4957 0.7217 1.9098
vt 1.1553 0.6680 1.8836
vt 1.1916 0.5440 2.1588
vt 1.2725 0.3597 1.8512
vt 1.6276 0.7753 2.4167
vt 1.6101 0.4542 2.1392
vt 1.7555 0.7783 1.8917
vt 1.5282 1.0467 2.1099
vt 1.7545 1.0979 2.0699
vt 1.8041 1.5252 1.7242
vt 1.2878 1.2848 1.8713
vt 1.4181 1.5644 1.6474
vt 1.1971 1.5527 2.0822
vt 1.1568 1.2135 1.5619
vt 0.8938 0.9915 1.6372
vt 1.0197 0.6045 2.1330
vt 0.7684 1.1832 1.9336
vt 0.8269 0.9527 2.2673
vt 0.8070 0.4950 1.9423
vt 0.9308 0.2597 1.7451
vt 1.7922 0.1123 1.9003
vt 0.4653 0.4246 1.4901
vt -0.2078 0.1123 1.9003
vt 0.1225 0.4331 1.9615
vt -0.2445 0.7783 1.8917
vt 0.0018 0.6170 1.6966
vt 0.0421 0.8697 1.7608
vt 0.1572 0.8823 1.5866
vt 0.1011 1.1087 1.3836
vt 1.9851 1.2856 2.0262
vt 1.6511 1.8641 1.8637
vt -0.0149 1.2856 2.0262
vt 0.2400 1.4802 2.3034
vt -0.3489 1.8641 1.8637
vt 0.5212 1.6993 1.5740
vt 1.0697 1.7378 1.8529
vt 0.9469 1.3542 2.2168
vt 0.7366 1.5485 2.1612
vt -0.3899 0.4542 2.1392
vt -0.2455 1.0979 2.0699
vt 0.5159 0.8690 1.8809
vt 0.3522 0.6342 1.9396
vt 0.6306 0.7095 1.8056
vt 0.3800 0.8725 1.9627
vt 0.5611 1.2500 1.5355
vt 0.7027 1.0946 1.8360
# 48 texture coords

g GeoSphere003
usemtl Rock1Mtl
s 1
f 1/1/1 2/2/2 3/3/3 
f 2/2/2 4/4/4 5/5/5 
f 2/2/2 5/5/5 3/3/3 
f 3/3/3 5/5/5 6/6/6 
f 1/1/1 3/3/3 7/7/7 
f 3/3/3 6/6/6 8/8/8 
f 3/3/3 8/8/8 7/7/7 
f 7/7/7 8/8/8 9/9/9 
f 1/1/1 7/7/7 10/10/10 
f 7/7/7 9/9/9 11/11/11 
f 7/7/7 11/11/11 10/10/10 
f 10/10/10 11/11/11 12/12/12 
f 1/1/1 10/10/10 13/13/13 
f 10/10/10 12/12/12 14/14/14 
f 10/10/10 14/14/14 13/13/13 
f 13/13/13 14/14/14 15/15/15 
f 1/1/1 13/13/13 2/2/2 
f 13/13/13 15/15/15 16/16/16 
f 13/13/13 16/16/16 2/2/2 
f 2/2/2 16/16/16 4/4/4 
f 4/4/4 17/17/17 18/18/18 
f 17/17/17 19/19/19 20/20/20 
f 17/17/17 20/20/20 18/18/18 
f 18/18/18 20/20/20 21/21/21 
f 6/6/6 22/22/22 23/23/23 
f 22/22/22 21/21/21 24/24/24 
f 22/22/22 24/24/24 23/25/23 
f 23/25/23 24/24/24 25/26/25 
f 9/27/9 26/28/26 27/29/27 
f 26/28/26 25/26/25 28/30/28 
f 26/28/26 28/30/28 27/29/27 
f 27/29/27 28/30/28 29/31/29 
f 12/12/12 30/32/30 31/33/31 
f 30/34/30 29/31/29 32/35/32 
f 30/34/30 32/35/32 31/36/31 
f 31/36/31 32/35/32 33/37/33 
f 15/15/15 34/38/34 35/39/35 
f 34/38/34 33/37/33 36/40/36 
f 34/38/34 36/40/36 35/39/35 
f 35/39/35 36/40/36 19/19/19 
f 21/21/21 22/22/22 18/18/18 
f 22/22/22 6/6/6 5/5/5 
f 22/22/22 5/5/5 18/18/18 
f 18/18/18 5/5/5 4/4/4 
f 25/26/25 26/28/26 23/25/23 
f 26/28/26 9/27/9 8/41/8 
f 26/28/26 8/41/8 23/25/23 
f 23/23/23 8/8/8 6/6/6 
f 29/31/29 30/34/30 27/29/27 
f 30/32/30 12/12/12 11/11/11 
f 30/34/30 11/42/11 27/29/27 
f 27/29/27 11/42/11 9/27/9 
f 33/37/33 34/38/34 31/36/31 
f 34/38/34 15/15/15 14/14/14 
f 34/38/34 14/14/14 31/33/31 
f 31/33/31 14/14/14 12/12/12 
f 19/19/19 17/17/17 35/39/35 
f 17/17/17 4/4/4 16/16/16 
f 17/17/17 16/16/16 35/39/35 
f 35/39/35 16/16/16 15/15/15 
f 37/43/37 38/44/38 39/45/39 
f 38/44/38 25/26/25 24/24/24 
f 38/44/38 24/24/24 39/45/39 
f 39/45/39 24/24/24 21/21/21 
f 37/43/37 40/46/40 38/44/38 
f 40/46/40 29/31/29 28/30/28 
f 40/46/40 28/30/28 38/44/38 
f 38/44/38 28/30/28 25/26/25 
f 37/43/37 41/47/41 40/46/40 
f 41/47/41 33/37/33 32/35/32 
f 41/47/41 32/35/32 40/46/40 
f 40/46/40 32/35/32 29/31/29 
f 37/43/37 42/48/42 41/47/41 
f 42/48/42 19/19/19 36/40/36 
f 42/48/42 36/40/36 41/47/41 
f 41/47/41 36/40/36 33/37/33 
f 37/43/37 39/45/39 42/48/42 
f 39/45/39 21/21/21 20/20/20 
f 39/45/39 20/20/20 42/48/42 
f 42/48/42 20/20/20 19/19/19 
# 0 polygons - 80 triangles

